# MagicaVoxel @ Ephtracy

# group
o 

# material
mtllib door.mtl
usemtl palette

# normals
vn -1 0 0
vn 1 0 0
vn 0 0 1
vn 0 0 -1
vn 0 -1 0
vn 0 1 0

# texcoords
vt 0.0214844 0.5
vt 0.560547 0.5
vt 0.861328 0.5

# verts
v -0.3 0 0.1
v -0.3 0 -0.1
v -0.3 0.9 0.1
v -0.3 0.9 -0.1
v 0.1 0.1 0.1
v 0.1 0.1 -1.49012e-08
v 0.1 0.2 0.1
v 0.1 0.2 -1.49012e-08
v 0.1 0.4 0.1
v 0.1 0.4 -1.49012e-08
v 0.1 0.5 0.1
v 0.1 0.5 -1.49012e-08
v 0.1 0.7 0.1
v 0.1 0.7 -1.49012e-08
v 0.1 0.8 0.1
v 0.1 0.8 -1.49012e-08
v 0.2 0.2 0.1
v 0.2 0.2 -1.49012e-08
v 0.2 0.4 0.1
v 0.2 0.4 -1.49012e-08
v 0.2 0.5 0.1
v 0.2 0.5 -1.49012e-08
v 0.2 0.7 0.1
v 0.2 0.7 -1.49012e-08
v -0.2 0.2 0.1
v -0.2 0.2 -1.49012e-08
v -0.2 0.7 0.1
v -0.2 0.7 -1.49012e-08
v -0.1 0.1 0.1
v -0.1 0.1 -1.49012e-08
v -0.1 0.2 0.1
v -0.1 0.2 -1.49012e-08
v -0.1 0.7 0.1
v -0.1 0.7 -1.49012e-08
v -0.1 0.8 0.1
v -0.1 0.8 -1.49012e-08
v 0.3 0 0.1
v 0.3 0 -0.1
v 0.3 0.9 0.1
v 0.3 0.9 -0.1
v -0.3 0 0.1
v -0.3 0.9 0.1
v -0.2 0.2 0.1
v -0.2 0.7 0.1
v -0.1 0.1 0.1
v -0.1 0.2 0.1
v -0.1 0.7 0.1
v -0.1 0.8 0.1
v 0.1 0.1 0.1
v 0.1 0.2 0.1
v 0.1 0.4 0.1
v 0.1 0.5 0.1
v 0.1 0.7 0.1
v 0.1 0.8 0.1
v 0.2 0.2 0.1
v 0.2 0.4 0.1
v 0.2 0.5 0.1
v 0.2 0.7 0.1
v 0.3 0 0.1
v 0.3 0.9 0.1
v -0.2 0.2 -1.49012e-08
v -0.2 0.7 -1.49012e-08
v -0.1 0.1 -1.49012e-08
v -0.1 0.2 -1.49012e-08
v -0.1 0.7 -1.49012e-08
v -0.1 0.8 -1.49012e-08
v 0.1 0.1 -1.49012e-08
v 0.1 0.2 -1.49012e-08
v 0.1 0.4 -1.49012e-08
v 0.1 0.5 -1.49012e-08
v 0.1 0.7 -1.49012e-08
v 0.1 0.8 -1.49012e-08
v 0.2 0.2 -1.49012e-08
v 0.2 0.4 -1.49012e-08
v 0.2 0.5 -1.49012e-08
v 0.2 0.7 -1.49012e-08
v -0.3 0 -0.1
v -0.3 0.9 -0.1
v -0.2 0.2 -0.1
v -0.2 0.7 -0.1
v -0.1 0.1 -0.1
v -0.1 0.2 -0.1
v -0.1 0.7 -0.1
v -0.1 0.8 -0.1
v 0.1 0.1 -0.1
v 0.1 0.2 -0.1
v 0.1 0.4 -0.1
v 0.1 0.5 -0.1
v 0.1 0.7 -0.1
v 0.1 0.8 -0.1
v 0.2 0.2 -0.1
v 0.2 0.4 -0.1
v 0.2 0.5 -0.1
v 0.2 0.7 -0.1
v 0.3 0 -0.1
v 0.3 0.9 -0.1
v -0.3 0 0.1
v 0.3 0 0.1
v -0.3 0 -0.1
v 0.3 0 -0.1
v 0.1 0.4 0.1
v 0.2 0.4 0.1
v 0.1 0.4 -1.49012e-08
v 0.2 0.4 -1.49012e-08
v -0.2 0.7 0.1
v -0.1 0.7 0.1
v 0.1 0.7 0.1
v 0.2 0.7 0.1
v -0.2 0.7 -1.49012e-08
v -0.1 0.7 -1.49012e-08
v 0.1 0.7 -1.49012e-08
v 0.2 0.7 -1.49012e-08
v -0.1 0.8 0.1
v 0.1 0.8 0.1
v -0.1 0.8 -1.49012e-08
v 0.1 0.8 -1.49012e-08
v -0.1 0.1 0.1
v 0.1 0.1 0.1
v -0.1 0.1 -1.49012e-08
v 0.1 0.1 -1.49012e-08
v -0.2 0.2 0.1
v -0.1 0.2 0.1
v 0.1 0.2 0.1
v 0.2 0.2 0.1
v -0.2 0.2 -1.49012e-08
v -0.1 0.2 -1.49012e-08
v 0.1 0.2 -1.49012e-08
v 0.2 0.2 -1.49012e-08
v 0.1 0.5 0.1
v 0.2 0.5 0.1
v 0.1 0.5 -1.49012e-08
v 0.2 0.5 -1.49012e-08
v -0.3 0.9 0.1
v 0.3 0.9 0.1
v -0.3 0.9 -0.1
v 0.3 0.9 -0.1

# faces
f 3/2/1 2/2/1 1/2/1
f 4/2/1 2/2/1 3/2/1
f 7/2/1 6/2/1 5/2/1
f 8/2/1 6/2/1 7/2/1
f 11/1/1 10/1/1 9/1/1
f 12/1/1 10/1/1 11/1/1
f 15/2/1 14/2/1 13/2/1
f 16/2/1 14/2/1 15/2/1
f 19/2/1 18/2/1 17/2/1
f 20/2/1 18/2/1 19/2/1
f 23/2/1 22/2/1 21/2/1
f 24/2/1 22/2/1 23/2/1
f 25/2/2 26/2/2 27/2/2
f 27/2/2 26/2/2 28/2/2
f 29/2/2 30/2/2 31/2/2
f 31/2/2 30/2/2 32/2/2
f 33/2/2 34/2/2 35/2/2
f 35/2/2 34/2/2 36/2/2
f 37/2/2 38/2/2 39/2/2
f 39/2/2 38/2/2 40/2/2
f 43/2/3 42/2/3 41/2/3
f 44/2/3 42/2/3 43/2/3
f 45/2/3 43/2/3 41/2/3
f 46/2/3 43/2/3 45/2/3
f 47/2/3 42/2/3 44/2/3
f 48/2/3 42/2/3 47/2/3
f 49/2/3 45/2/3 41/2/3
f 54/2/3 42/2/3 48/2/3
f 55/2/3 50/2/3 49/2/3
f 56/1/3 52/1/3 51/1/3
f 57/1/3 52/1/3 56/1/3
f 58/2/3 54/2/3 53/2/3
f 59/2/3 55/2/3 49/2/3
f 59/2/3 58/2/3 57/2/3
f 59/2/3 49/2/3 41/2/3
f 59/2/3 57/2/3 56/2/3
f 59/2/3 56/2/3 55/2/3
f 60/2/3 54/2/3 58/2/3
f 60/2/3 58/2/3 59/2/3
f 60/2/3 42/2/3 54/2/3
f 64/3/3 62/3/3 61/3/3
f 65/3/3 62/3/3 64/3/3
f 67/3/3 64/3/3 63/3/3
f 68/2/3 65/2/3 64/2/3
f 68/3/3 64/3/3 67/3/3
f 69/2/3 65/2/3 68/2/3
f 70/2/3 65/2/3 69/2/3
f 71/3/3 66/3/3 65/3/3
f 71/2/3 65/2/3 70/2/3
f 72/3/3 66/3/3 71/3/3
f 73/3/3 69/3/3 68/3/3
f 74/3/3 69/3/3 73/3/3
f 75/3/3 71/3/3 70/3/3
f 76/3/3 71/3/3 75/3/3
f 77/2/4 78/2/4 79/2/4
f 79/2/4 78/2/4 80/2/4
f 77/2/4 79/2/4 81/2/4
f 79/3/4 80/3/4 82/3/4
f 81/2/4 79/2/4 82/2/4
f 80/2/4 78/2/4 83/2/4
f 82/3/4 80/3/4 83/3/4
f 83/2/4 78/2/4 84/2/4
f 81/3/4 82/3/4 85/3/4
f 77/2/4 81/2/4 85/2/4
f 82/2/4 83/2/4 86/2/4
f 85/3/4 82/3/4 86/3/4
f 86/2/4 83/2/4 87/2/4
f 87/2/4 83/2/4 88/2/4
f 83/3/4 84/3/4 89/3/4
f 88/2/4 83/2/4 89/2/4
f 84/2/4 78/2/4 90/2/4
f 89/3/4 84/3/4 90/3/4
f 85/2/4 86/2/4 91/2/4
f 86/3/4 87/3/4 91/3/4
f 87/1/4 88/1/4 92/1/4
f 91/3/4 87/3/4 92/3/4
f 88/3/4 89/3/4 93/3/4
f 92/1/4 88/1/4 93/1/4
f 89/2/4 90/2/4 94/2/4
f 93/3/4 89/3/4 94/3/4
f 91/2/4 92/2/4 95/2/4
f 85/2/4 91/2/4 95/2/4
f 93/2/4 94/2/4 95/2/4
f 92/2/4 93/2/4 95/2/4
f 77/2/4 85/2/4 95/2/4
f 94/2/4 90/2/4 96/2/4
f 95/2/4 94/2/4 96/2/4
f 90/2/4 78/2/4 96/2/4
f 99/2/5 98/2/5 97/2/5
f 100/2/5 98/2/5 99/2/5
f 103/1/5 102/1/5 101/1/5
f 104/1/5 102/1/5 103/1/5
f 109/2/5 106/2/5 105/2/5
f 110/2/5 106/2/5 109/2/5
f 111/2/5 108/2/5 107/2/5
f 112/2/5 108/2/5 111/2/5
f 115/2/5 114/2/5 113/2/5
f 116/2/5 114/2/5 115/2/5
f 117/2/6 118/2/6 119/2/6
f 119/2/6 118/2/6 120/2/6
f 121/2/6 122/2/6 125/2/6
f 125/2/6 122/2/6 126/2/6
f 123/2/6 124/2/6 127/2/6
f 127/2/6 124/2/6 128/2/6
f 129/1/6 130/1/6 131/1/6
f 131/1/6 130/1/6 132/1/6
f 133/2/6 134/2/6 135/2/6
f 135/2/6 134/2/6 136/2/6
